<svg xmlns="http://www.w3.org/2000/svg" viewBox="0 0 41.44 41.44"><defs><style>.cls-1{fill:#1e1e1e;}.cls-2,.cls-3{fill:#ffda3e;}.cls-2,.cls-4{stroke:#ffda3e;stroke-width:3.02px;}.cls-2{stroke-miterlimit:10;}.cls-4{fill:none;stroke-linejoin:round;}</style></defs><title>BCAsset 2</title><g id="Layer_2" data-name="Layer 2"><g id="Layer_4" data-name="Layer 4"><circle class="cls-1" cx="20.72" cy="20.72" r="19.64"/><polygon class="cls-2" points="24.64 13.93 16.8 13.93 12.88 20.72 16.8 27.51 24.64 27.51 28.56 20.72 24.64 13.93"/><path class="cls-3" d="M20.72,3.19A17.53,17.53,0,1,1,3.19,20.72,17.54,17.54,0,0,1,20.72,3.19m0-3.19A20.72,20.72,0,1,0,41.44,20.72,20.72,20.72,0,0,0,20.72,0Z"/><line class="cls-4" x1="35.81" y1="8.18" x2="24.64" y2="27.51"/><line class="cls-4" x1="2.31" y1="13.93" x2="24.64" y2="13.93"/><line class="cls-4" x1="12.88" y1="20.72" x2="24.04" y2="40.06"/><line class="cls-4" x1="17.4" y1="1.38" x2="28.56" y2="20.72"/><line class="cls-4" x1="39.13" y1="27.51" x2="16.8" y2="27.51"/><line class="cls-4" x1="16.8" y1="13.93" x2="5.64" y2="33.27"/></g></g></svg>