<svg xmlns="http://www.w3.org/2000/svg" viewBox="0 0 41.62 40.18"><defs><style>.cls-1{fill:#1e1e1e;}.cls-2{fill:#ffda3e;}</style></defs><title>BCAsset 4</title><g id="Layer_2" data-name="Layer 2"><g id="Layer_4" data-name="Layer 4"><path class="cls-1" d="M20.8,38.57C10.21,38.55,1.6,30.2,1.6,20S10.22,1.61,20.81,1.6,40,9.87,40,20a18.11,18.11,0,0,1-5.59,13.09,19.39,19.39,0,0,1-13.58,5.44Z"/><path class="cls-2" d="M20.81,3.21c9.7,0,17.6,7.55,17.6,16.83A16.52,16.52,0,0,1,33.3,32a17.79,17.79,0,0,1-12.5,5C10.93,37,3.2,29.48,3.21,20c0-9.23,7.89-16.75,17.59-16.75h0m0-3.21h0C9.37,0,0,9,0,20,0,31.17,9.23,40.15,20.79,40.18h.05c11.48,0,20.78-9,20.78-20.14S32.27,0,20.81,0Z"/><path class="cls-2" d="M14.56,18.72c.11-.46.2-.85.31-1.24a.37.37,0,0,1,.2-.21,12.2,12.2,0,0,1,5.08-1.18,4.12,4.12,0,0,1,2.57.92,3,3,0,0,1,1,2.43A14.31,14.31,0,0,1,23,23.16c-.42,1.48-.84,3-1.22,4.47a4.35,4.35,0,0,0-.09,1.4c.08.74.48,1,1.27,1.12a5.23,5.23,0,0,0,2.15-.27l.38-.1c-.16.44-.07,1-.41,1.31a1.41,1.41,0,0,1-.51.28c-.5.18-1,.35-1.51.51a8.7,8.7,0,0,1-3.64.45A4.08,4.08,0,0,1,17,31.13a3.24,3.24,0,0,1-.65-2.78c.3-1.61.8-3.19,1.21-4.78.27-1.09.6-2.17.79-3.28.26-1.5-.32-2.08-1.89-2a8,8,0,0,0-1.35.26A4.67,4.67,0,0,0,14.56,18.72Z"/><path class="cls-2" d="M22.67,7.73a2.91,2.91,0,0,1,2.94,3.94,3.09,3.09,0,0,1-2.86,1.8,3.25,3.25,0,0,1-3.07-1.81,2.88,2.88,0,0,1,2.47-3.9C22.32,7.74,22.48,7.74,22.67,7.73Z"/></g></g></svg>