<svg xmlns="http://www.w3.org/2000/svg" viewBox="0 0 41.62 229.68"><defs><style>.cls-1,.cls-5{fill:#1e1e1e;}.cls-2,.cls-3{fill:#ffda3e;}.cls-2,.cls-4,.cls-5,.cls-6{stroke:#ffda3e;}.cls-2,.cls-5{stroke-miterlimit:10;}.cls-2,.cls-4{stroke-width:3.02px;}.cls-4,.cls-6,.cls-7,.cls-8{fill:none;stroke-linejoin:round;}.cls-6,.cls-7,.cls-8{stroke-linecap:round;}.cls-6,.cls-7{stroke-width:1.55px;}.cls-7,.cls-8{stroke:#1e1e1e;}.cls-8{stroke-width:1.89px;}</style></defs><title>BCAsset 5</title><g id="Layer_2" data-name="Layer 2"><g id="Layer_4" data-name="Layer 4"><circle class="cls-1" cx="20.84" cy="83.17" r="19.64"/><polygon class="cls-2" points="24.77 76.38 16.92 76.38 13 83.17 16.92 89.96 24.77 89.96 28.69 83.17 24.77 76.38"/><path class="cls-3" d="M20.84,65.64A17.53,17.53,0,1,1,3.31,83.17,17.55,17.55,0,0,1,20.84,65.64m0-3.19A20.72,20.72,0,1,0,41.57,83.17,20.72,20.72,0,0,0,20.84,62.45Z"/><line class="cls-4" x1="35.93" y1="70.62" x2="24.77" y2="89.96"/><line class="cls-4" x1="2.43" y1="76.38" x2="24.77" y2="76.38"/><line class="cls-4" x1="13" y1="83.17" x2="24.17" y2="102.51"/><line class="cls-4" x1="17.52" y1="63.83" x2="28.69" y2="83.17"/><line class="cls-4" x1="39.26" y1="89.96" x2="16.92" y2="89.96"/><line class="cls-4" x1="16.92" y1="76.38" x2="5.76" y2="95.71"/><rect class="cls-5" x="1.21" y="127.13" width="39.2" height="39.2" rx="3.41" transform="translate(-125.93 167.55) rotate(-90)"/><path class="cls-3" d="M2.19,165.31a3.41,3.41,0,0,0,2.43,1H37a3.42,3.42,0,0,0,3.41-3.42V130.55a3.36,3.36,0,0,0-1-2.43Z"/><line class="cls-6" x1="6.82" y1="135.55" x2="6.82" y2="130.56"/><line class="cls-6" x1="9.31" y1="133.05" x2="4.33" y2="133.05"/><line class="cls-7" x1="37.84" y1="161.58" x2="32.86" y2="161.58"/><rect class="cls-3" x="1.21" width="39.2" height="39.2" rx="3.41" transform="translate(1.21 40.41) rotate(-90)"/><path class="cls-8" d="M14.68,10.11H9.48A2.57,2.57,0,0,0,6.9,12.69v3.17"/><path class="cls-8" d="M6.9,23.35v3.17A2.58,2.58,0,0,0,9.48,29.1h5.2"/><path class="cls-8" d="M26.93,10.11h5.21a2.58,2.58,0,0,1,2.58,2.58v3.17"/><path class="cls-8" d="M34.72,23.35v3.17a2.59,2.59,0,0,1-2.58,2.58H26.93"/><circle class="cls-8" cx="20.81" cy="19.6" r="3.37"/><path class="cls-1" d="M20.8,228.07c-10.59,0-19.2-8.37-19.2-18.6s8.62-18.36,19.21-18.37S40,199.37,40,209.54a18.11,18.11,0,0,1-5.59,13.09,19.39,19.39,0,0,1-13.58,5.44Z"/><path class="cls-3" d="M20.81,192.71c9.7,0,17.6,7.55,17.6,16.83a16.52,16.52,0,0,1-5.11,11.94,17.79,17.79,0,0,1-12.5,5c-9.87,0-17.6-7.49-17.59-17,0-9.24,7.89-16.76,17.59-16.76h0m0-3.21h0c-11.43,0-20.8,9-20.8,20,0,11.21,9.23,20.19,20.79,20.22h.05c11.48,0,20.78-9,20.78-20.14s-9.35-20-20.81-20Z"/><path class="cls-3" d="M14.56,208.22c.11-.46.2-.85.31-1.24a.37.37,0,0,1,.2-.21,12.2,12.2,0,0,1,5.08-1.18,4.12,4.12,0,0,1,2.57.92,3,3,0,0,1,1,2.43,14.31,14.31,0,0,1-.76,3.72c-.42,1.48-.84,3-1.22,4.47a4.39,4.39,0,0,0-.09,1.4c.08.74.48,1,1.27,1.12a5.23,5.23,0,0,0,2.15-.27l.38-.1c-.16.44-.07,1-.41,1.31a1.41,1.41,0,0,1-.51.28c-.5.19-1,.35-1.51.51a8.7,8.7,0,0,1-3.64.45,4,4,0,0,1-2.43-1.2,3.24,3.24,0,0,1-.65-2.78c.3-1.61.8-3.19,1.21-4.78.27-1.09.6-2.17.79-3.28.26-1.5-.32-2.08-1.89-2a9.18,9.18,0,0,0-1.35.26A4.67,4.67,0,0,0,14.56,208.22Z"/><path class="cls-3" d="M22.67,197.23a2.91,2.91,0,0,1,2.94,3.94,3.09,3.09,0,0,1-2.86,1.8,3.25,3.25,0,0,1-3.07-1.81,2.88,2.88,0,0,1,2.47-3.9C22.32,197.24,22.48,197.24,22.67,197.23Z"/></g></g></svg>