<svg xmlns="http://www.w3.org/2000/svg" viewBox="0 0 144.49 289.67"><defs><style>.cls-1{fill:#6d80bf;stroke-linecap:round;stroke-linejoin:round;}.cls-1,.cls-5{stroke:#6d80bf;stroke-width:4.87px;}.cls-2{fill:#fbfbf4;}.cls-3{fill:#f15d22;}.cls-4{fill:#fed402;}.cls-5{fill:#0f1638;stroke-miterlimit:10;}</style></defs><title>BCAsset 2</title><g id="Layer_2" data-name="Layer 2"><g id="Layer_1-2" data-name="Layer 1"><path class="cls-1" d="M37.44,99.24H97.16a31.12,31.12,0,0,1,31.12,31.12v0a0,0,0,0,1,0,0H6.32a0,0,0,0,1,0,0v0A31.12,31.12,0,0,1,37.44,99.24Z" transform="translate(-38.98 34.72) rotate(-22.62)"/><path class="cls-2" d="M85.9,43.88c14.15,33.95,7.25,69.14-15.41,78.58S18,112,3.84,78.08C-8.39,48.74,12,11.44,17.79,1.83A3.78,3.78,0,0,1,21.93.11C32.81,2.77,73.67,14.54,85.9,43.88Z"/><path class="cls-3" d="M104,143a27.72,27.72,0,0,0-37.5,40.11l39,56L140,288.6a2.49,2.49,0,0,0,4.46-2L130.8,227.85l-15.43-66.6A27.68,27.68,0,0,0,104,143Z"/><path class="cls-4" d="M100.11,148.45a21.07,21.07,0,0,0-28.49,30.49l29.65,42.53,26.21,37.61a1.89,1.89,0,0,0,3.39-1.51l-10.35-44.66-11.73-50.6A21,21,0,0,0,100.11,148.45Z"/><circle class="cls-5" cx="44.87" cy="60.98" r="22.33"/></g></g></svg>