<svg xmlns="http://www.w3.org/2000/svg" viewBox="0 0 158.7 186.19"><defs><style>.cls-1{fill:#91cfa6;}.cls-2{fill:#262532;}.cls-3,.cls-5{fill:#fff;}.cls-4,.cls-7{fill:none;}.cls-4{stroke:#91cfa6;stroke-width:2.89px;}.cls-4,.cls-6,.cls-7{stroke-miterlimit:10;}.cls-5{opacity:0.17;}.cls-6,.cls-8{fill:#e1383d;}.cls-6,.cls-7{stroke:#e1383d;stroke-linecap:round;stroke-width:1.44px;}.cls-9{fill:#cc202a;}</style></defs><title>BCAsset 1</title><g id="Layer_2" data-name="Layer 2"><g id="Layer_1-2" data-name="Layer 1"><path class="cls-1" d="M26.1,94.72A52.39,52.39,0,0,1,88.19,54.29h0a52.39,52.39,0,0,1,40.43,62.09"/><circle class="cls-2" cx="82.78" cy="79.92" r="12.76"/><circle class="cls-3" cx="80.58" cy="72.79" r="4.24"/><circle class="cls-3" cx="82.36" cy="77.5" r="1.82"/><circle class="cls-1" cx="65.37" cy="20.93" r="5.07"/><circle class="cls-1" cx="120.61" cy="32.6" r="5.07"/><line class="cls-4" x1="65.37" y1="20.93" x2="68.27" y2="58.17"/><line class="cls-4" x1="120.61" y1="32.6" x2="104.05" y2="65.73"/><path class="cls-5" d="M10.9,91.51A9.17,9.17,0,0,1,4,80.06C18.68,28,60.23-6.45,100.17,2h0c39.94,8.44,64,56.74,56.41,110.31a9.18,9.18,0,0,1-11,7.67Z"/><path class="cls-6" d="M154.77,122.42c0-.17.07-.33.11-.49h0c.08-.4.17-.8.24-1.2.14-.76.27-1.52.41-2.28l.47-2.65.39-2.19c.05-.31.11-.61.16-.92-1.91,8.44-10.54,7.36-10.54,7.36L88.94,108l-21.37-4.52-57.06-12s-8.33-2.51-6.66-11c-.07.3-.14.6-.22.9L3.1,83.5l-.64,2.61c-.18.75-.37,1.5-.55,2.25-.1.39-.18.79-.26,1.19h0c0,.16-.07.33-.1.49s-.09.45-.13.67-.06.37-.1.56l-.18,1C1,93.22.9,94.13.84,95.05S.73,96.88.72,97.79s0,1.83.07,2.74.13,1.82.24,2.73c.07.58.17,1.15.26,1.72,0,.11,0,.23.05.34s.06.44.1.66.11.47.15.71.1.42.14.63c.1.45.18.91.29,1.36.07.26.15.51.22.76s.12.46.19.69c.11.41.21.83.34,1.23s.19.55.28.82l.24.71c.13.38.25.76.39,1.13s.23.58.35.87.19.48.29.72.27.7.42,1,.29.59.42.89l.35.75c.15.32.29.64.45,1l.49.92c.14.26.28.51.41.77l.47.87c.18.32.38.62.56.94l.48.8c.16.26.31.53.48.79s.41.61.61.91l.57.86c.16.24.31.48.48.71s.41.55.61.83l.72,1,.47.63.41.51q.53.66,1.08,1.32l.44.55c.14.17.29.32.43.48l1.22,1.38.42.47.49.5c.43.46.87.92,1.32,1.37l.39.41.54.51c.45.44.91.87,1.37,1.3l.42.4.58.5c.43.39.87.78,1.32,1.16l.54.48.62.5,1.36,1.1.59.47.62.47c.48.36,1,.73,1.46,1.08l.6.45.6.41c.53.38,1.06.74,1.6,1.11l.59.4.51.33c.6.39,1.21.77,1.83,1.15l.56.36.29.17c.72.43,1.45.86,2.19,1.27l.53.31.32.18c.76.41,1.52.82,2.29,1.22l.49.26c.12.07.25.12.37.18.79.41,1.59.8,2.4,1.18l.43.21.4.18c.83.38,1.67.76,2.52,1.13l.38.16.41.17q1.32.56,2.67,1.08l.31.12c.13.06.27.1.41.15.93.36,1.87.7,2.82,1l.24.09.39.12c1,.34,2,.67,3,1l.17.05.33.1c1.06.32,2.13.62,3.21.92l.09,0,.23.06c1.14.3,2.29.59,3.45.86h0c.65.16,1.3.3,2,.44h0l2,.4h0c1.17.23,2.33.43,3.5.61l.23,0h.09c1.11.17,2.21.32,3.31.46l.35,0,.17,0c1,.13,2.09.23,3.13.33l.42,0,.25,0c1,.08,2,.14,3,.2l.44,0h.34l2.87.09.44,0h.42c.92,0,1.85,0,2.76,0,.15,0,.29,0,.43,0l.49,0c.89,0,1.79-.05,2.67-.1l.41,0,.55,0c.87-.05,1.73-.11,2.59-.19l.37,0,.61-.07c.84-.08,1.68-.17,2.51-.28l.34,0,.66-.1c.71-.09,1.43-.2,2.13-.31l.6-.09.71-.14c.64-.11,1.27-.23,1.91-.36l.71-.13.73-.17,1.77-.4.76-.17.73-.2,1.7-.46.76-.2.69-.22,1.68-.52.73-.23.54-.19,1.79-.65.69-.24.52-.21,1.77-.72.64-.26.58-.27,1.68-.76c.19-.09.39-.17.58-.27L127,155q.76-.37,1.53-.78l.57-.29.68-.39,1.07-.61.88-.5.73-.46.87-.56.93-.58.75-.54.77-.53c.29-.22.6-.41.89-.63s.51-.41.78-.61l.68-.54c.28-.22.56-.42.83-.64l.79-.7.63-.54.74-.65c.28-.25.54-.52.81-.78l.57-.55c.22-.22.45-.42.66-.65s.54-.58.82-.88.34-.36.5-.55.4-.41.59-.63.53-.66.8-1l.46-.56.51-.61c.28-.36.53-.74.8-1.11l.4-.54c.13-.2.28-.39.42-.59s.24-.37.36-.56l.21-.34c.31-.47.62-.94.91-1.42.46-.78.91-1.58,1.32-2.4s.81-1.64,1.17-2.47.7-1.7,1-2.56.58-1.74.83-2.62c.09-.35.17-.69.26-1,.05-.18.09-.37.14-.55Z"/><path class="cls-7" d="M10.51,91.43a8.83,8.83,0,0,1-6.66-11C18.48,28.16,60.13-6.47,100.17,2h0c40,8.46,64.12,57,56.35,110.7A8.81,8.81,0,0,1,146,120.05Z"/><rect class="cls-8" x="99.61" y="154.69" width="10.65" height="33.33" rx="5.33" ry="5.33" transform="translate(-76.51 85.02) rotate(-33.07)"/><rect class="cls-8" x="18.25" y="137.5" width="10.65" height="33.33" rx="5.33" ry="5.33" transform="translate(-92.75 258.06) rotate(-123.07)"/><path class="cls-9" d="M72.68,156.82h0C35.13,148.88,8.5,121.92,9.85,94.73a2.48,2.48,0,0,0-2-2.56h0a3,3,0,0,0-3.63,2.6C.71,123,27.9,151.61,66.82,159.83h0A100.29,100.29,0,0,0,92.22,162a1.47,1.47,0,0,0-.07-2.93A102.4,102.4,0,0,1,72.68,156.82Z"/></g></g></svg>